<?xml version="1.0" standalone="no"?>
<!DOCTYPE svg PUBLIC "-//W3C//DTD SVG 20010904//EN"
 "http://www.w3.org/TR/2001/REC-SVG-20010904/DTD/svg10.dtd">
<svg version="1.0" xmlns="http://www.w3.org/2000/svg"
 width="900.000000pt" height="900.000000pt" viewBox="0 0 900.000000 900.000000"
 preserveAspectRatio="xMidYMid meet">
<metadata>
Created by potrace 1.10, written by Peter Selinger 2001-2011
</metadata>
<g transform="translate(0.000000,900.000000) scale(0.100000,-0.100000)"
fill="#000000" stroke="none">
<path d="M4390 8570 c-25 -4 -88 -14 -140 -23 -53 -8 -122 -27 -154 -41 -32
-14 -65 -26 -73 -26 -15 0 -125 -36 -151 -50 -9 -4 -46 -16 -82 -25 -36 -9
-92 -29 -125 -45 -110 -51 -150 -71 -165 -81 -8 -5 -35 -18 -60 -30 -71 -32
-189 -97 -224 -124 -18 -14 -70 -49 -117 -78 -46 -29 -109 -72 -139 -95 -30
-24 -91 -69 -135 -101 -97 -70 -212 -177 -448 -416 -234 -237 -270 -277 -325
-360 -26 -38 -61 -84 -78 -101 -48 -49 -124 -151 -124 -167 0 -8 -7 -20 -15
-27 -8 -7 -15 -18 -15 -24 0 -6 -12 -25 -27 -42 -47 -50 -88 -107 -108 -149
-11 -22 -43 -72 -72 -110 -54 -73 -123 -196 -123 -220 0 -7 -7 -18 -15 -25 -8
-7 -15 -23 -15 -35 0 -12 -7 -28 -15 -35 -8 -7 -15 -19 -15 -26 0 -8 -4 -14
-10 -14 -5 0 -13 -12 -16 -27 -4 -16 -24 -50 -45 -78 -37 -49 -92 -153 -144
-270 -14 -33 -35 -80 -46 -105 -11 -25 -24 -53 -30 -62 -5 -10 -9 -26 -9 -36
0 -9 -6 -26 -13 -37 -8 -11 -16 -29 -20 -40 -3 -11 -17 -51 -31 -90 -14 -38
-26 -77 -26 -86 0 -10 -14 -44 -30 -77 -16 -34 -30 -73 -30 -87 0 -15 -13 -59
-29 -98 -37 -91 -61 -176 -61 -217 0 -17 -6 -43 -14 -58 -7 -15 -21 -61 -30
-102 -10 -41 -24 -96 -32 -121 -8 -26 -14 -60 -14 -75 0 -16 -5 -45 -10 -64
-9 -32 -25 -124 -50 -300 -5 -36 -14 -89 -20 -119 -5 -29 -10 -83 -10 -120 0
-36 -7 -120 -15 -186 -19 -152 -19 -378 0 -530 8 -66 15 -149 15 -185 1 -36 5
-85 11 -110 14 -66 27 -143 44 -250 13 -89 18 -109 46 -192 6 -18 15 -53 19
-78 5 -25 18 -72 30 -105 12 -33 25 -73 30 -90 10 -36 37 -107 74 -194 29 -68
35 -80 60 -128 9 -17 16 -36 16 -42 0 -6 12 -30 27 -54 41 -62 52 -80 59 -97
32 -76 116 -201 163 -244 12 -11 21 -23 21 -28 0 -48 289 -354 408 -432 41
-26 90 -62 110 -79 43 -37 59 -47 127 -81 124 -60 225 -104 280 -120 33 -10
75 -25 93 -32 18 -8 41 -14 51 -14 9 0 37 -6 62 -14 129 -39 152 -42 519 -66
102 -6 228 -18 280 -26 53 -8 141 -14 195 -14 60 0 120 -6 149 -15 69 -21 465
-21 551 0 34 8 111 15 180 15 66 0 151 7 190 15 38 8 87 15 108 15 21 0 66 6
100 14 34 8 100 22 147 31 102 20 191 42 243 61 20 8 50 14 65 14 16 0 48 6
73 14 24 7 71 21 104 31 117 32 160 46 193 61 53 23 95 41 137 57 101 38 133
50 170 67 22 10 67 30 100 45 33 14 71 32 85 39 86 45 153 84 207 123 35 23
66 43 70 43 5 0 38 19 74 43 36 23 83 51 105 62 61 30 125 84 295 247 37 34
84 72 105 83 34 17 109 69 124 85 9 10 110 80 116 80 3 0 41 27 84 60 43 33
82 60 85 60 3 0 43 24 89 54 45 29 107 66 137 80 29 15 77 39 104 52 28 14 77
38 110 53 33 15 82 38 108 50 134 63 326 314 376 491 10 38 8 261 -4 301 -4
13 -33 78 -64 144 -69 143 -84 209 -106 466 -14 156 -15 206 -5 305 16 156 16
649 1 789 -22 200 -55 393 -86 510 -8 28 -22 86 -31 130 -9 44 -30 121 -46
170 -15 50 -35 113 -44 140 -17 57 -36 105 -74 190 -15 33 -30 75 -33 93 -8
38 -78 197 -103 232 -5 8 -18 35 -28 60 -10 25 -26 61 -36 80 -10 19 -36 69
-57 110 -21 41 -60 104 -86 139 -26 35 -47 68 -47 73 0 6 -20 44 -45 85 -25
40 -45 76 -45 79 0 4 -13 26 -30 51 -16 24 -30 46 -30 49 0 11 -128 174 -216
275 -51 59 -108 131 -128 161 -53 83 -540 573 -623 627 -37 25 -113 88 -168
140 -154 148 -282 257 -326 281 -22 11 -65 39 -94 61 -65 49 -122 79 -149 79
-26 0 -107 30 -127 47 -8 7 -20 13 -26 13 -6 0 -24 6 -40 14 -93 45 -189 76
-238 76 -17 0 -54 7 -81 16 -39 13 -102 17 -309 19 -143 2 -280 0 -305 -5z
m654 -140 c40 -9 81 -22 92 -27 10 -6 55 -18 99 -28 47 -10 92 -27 111 -42 18
-13 49 -27 69 -30 43 -7 190 -84 218 -114 11 -12 34 -27 51 -34 17 -7 42 -25
55 -39 14 -14 29 -26 34 -26 9 0 144 -111 192 -158 75 -75 173 -189 179 -210
4 -12 23 -34 41 -48 19 -14 37 -36 41 -47 4 -12 20 -38 35 -58 16 -20 29 -39
29 -42 0 -3 13 -25 29 -49 15 -24 31 -54 34 -68 4 -14 22 -50 42 -80 20 -30
38 -66 42 -80 3 -14 18 -46 34 -71 18 -28 29 -59 29 -81 0 -20 13 -60 28 -89
15 -30 36 -85 46 -124 20 -78 42 -144 62 -192 8 -17 14 -52 14 -77 0 -26 12
-93 26 -149 19 -76 28 -145 35 -272 5 -93 13 -204 18 -245 13 -99 13 -380 0
-505 -5 -55 -14 -163 -19 -240 -8 -141 -32 -313 -50 -360 -6 -15 -10 -47 -10
-73 0 -48 -30 -183 -47 -218 -6 -10 -13 -37 -16 -59 -9 -65 -34 -165 -62 -245
-14 -41 -25 -85 -25 -97 0 -13 -13 -49 -30 -80 -16 -31 -30 -69 -30 -84 0 -35
-23 -105 -61 -187 -16 -34 -29 -68 -29 -76 0 -12 -29 -81 -49 -116 -5 -8 -17
-35 -26 -60 -9 -25 -23 -58 -31 -73 -8 -16 -14 -37 -14 -46 0 -10 -13 -37 -30
-59 -16 -23 -30 -47 -30 -52 0 -15 -100 -213 -144 -284 -20 -33 -36 -66 -36
-74 0 -8 -13 -31 -30 -52 -16 -21 -30 -40 -30 -43 0 -3 -13 -26 -30 -50 -16
-25 -30 -52 -30 -60 0 -8 -16 -34 -36 -58 -19 -23 -42 -56 -50 -72 -16 -31
-66 -104 -119 -172 -16 -22 -39 -56 -49 -75 -21 -37 -49 -75 -107 -143 -20
-23 -45 -56 -55 -73 -23 -38 -121 -149 -233 -263 -46 -47 -99 -105 -118 -129
-20 -23 -39 -42 -44 -42 -4 0 -69 -61 -144 -135 -75 -74 -141 -135 -148 -135
-7 0 -37 -22 -68 -48 -86 -73 -179 -145 -208 -162 -14 -8 -71 -42 -125 -75
-124 -76 -123 -75 -173 -108 -24 -15 -48 -27 -56 -27 -7 0 -22 -7 -34 -15 -31
-22 -140 -75 -153 -75 -5 0 -29 -14 -52 -30 -23 -17 -54 -30 -69 -30 -16 0
-57 -13 -91 -29 -35 -16 -81 -33 -103 -36 -22 -4 -67 -17 -100 -30 -105 -39
-166 -55 -214 -55 -25 0 -73 -6 -106 -14 -129 -30 -282 -39 -467 -28 -115 7
-189 17 -213 27 -21 8 -52 15 -69 15 -41 0 -164 32 -250 64 -38 14 -80 26 -94
26 -13 0 -41 13 -61 29 -20 15 -48 31 -62 34 -14 4 -42 17 -61 31 -20 13 -45
27 -56 30 -11 4 -31 17 -44 29 -14 12 -40 31 -59 41 -57 32 -239 190 -306 265
-81 92 -110 128 -153 186 -24 33 -57 73 -72 88 -15 16 -28 33 -28 39 0 5 -13
29 -28 52 -15 22 -38 62 -51 89 -12 26 -26 47 -30 47 -15 0 -41 60 -41 97 0
27 -7 46 -26 66 -14 15 -34 53 -45 84 -10 31 -25 64 -33 72 -8 9 -22 59 -31
111 -9 52 -29 122 -45 155 -17 37 -29 85 -33 125 -3 36 -16 99 -30 140 -18 54
-29 116 -37 220 -6 80 -18 217 -26 305 -8 88 -17 192 -20 230 -4 39 -1 111 6
160 6 50 16 158 20 240 13 236 37 432 65 530 13 50 25 113 25 141 0 47 9 88
42 194 6 19 17 64 24 100 21 107 31 142 58 207 14 35 26 82 26 105 0 31 9 56
30 88 16 25 30 53 30 62 0 32 70 227 121 335 16 35 29 71 29 80 0 10 14 38 30
63 16 25 30 57 30 71 0 14 13 44 28 65 15 21 45 73 65 114 21 41 42 82 46 90
5 8 17 33 27 55 11 22 25 44 31 48 7 4 13 16 13 25 1 9 12 35 25 57 13 22 33
58 45 79 12 22 35 56 51 75 16 20 29 42 29 49 0 8 14 31 30 52 16 21 30 42 30
46 0 5 14 24 31 41 16 18 38 50 47 71 9 21 29 51 45 67 15 16 27 35 27 41 0 6
12 21 26 35 14 13 33 38 41 54 9 17 31 48 49 71 19 23 34 46 34 51 0 6 18 28
41 49 22 22 86 95 141 164 55 69 114 136 132 150 18 14 52 47 76 74 23 28 65
68 94 90 28 22 57 49 65 60 24 32 37 44 157 138 38 29 79 64 91 76 12 13 41
37 65 52 24 16 68 46 98 69 89 65 182 127 220 146 19 10 49 28 67 41 17 13 41
24 53 24 12 0 39 14 60 30 21 17 40 30 43 30 4 0 28 13 56 29 27 16 75 38 108
48 32 10 77 30 99 45 23 16 51 28 61 28 21 0 118 31 149 48 10 6 48 16 84 22
36 7 81 19 100 27 107 46 323 64 678 56 175 -4 251 -9 306 -23z"/>
<path d="M4483 8151 c-34 -4 -68 -12 -75 -18 -15 -11 -73 -29 -135 -42 -47
-10 -161 -102 -168 -136 -2 -11 -6 -64 -10 -118 -5 -94 -23 -185 -43 -224 -5
-10 -13 -76 -16 -148 -12 -233 -26 -336 -56 -425 -25 -75 -29 -104 -34 -250
-6 -186 -18 -265 -48 -328 -23 -49 -37 -183 -37 -373 -1 -117 -7 -147 -44
-200 -16 -23 -18 -53 -18 -265 0 -246 -6 -283 -44 -297 -12 -5 -15 -30 -15
-154 0 -146 0 -147 27 -175 15 -15 35 -28 45 -28 27 0 78 41 78 62 0 9 13 24
29 33 39 20 85 63 108 102 11 18 31 42 46 53 15 12 27 28 27 37 0 8 19 34 43
58 61 63 118 126 150 165 40 49 96 116 134 158 18 21 33 42 33 49 0 6 13 22
28 35 16 13 39 40 51 61 13 20 26 37 30 37 4 0 37 35 73 78 36 42 91 104 122
136 31 33 56 67 56 77 0 9 12 28 28 41 15 13 39 41 54 63 14 22 49 64 77 93
28 29 51 57 51 63 0 9 65 88 169 205 47 53 95 114 101 129 8 21 108 125 119
125 13 0 31 33 31 55 0 9 34 55 75 101 41 46 75 90 75 97 1 6 14 28 30 47 17
19 30 43 30 53 0 10 7 32 16 48 14 28 14 39 -1 127 -12 69 -25 110 -45 142
-15 25 -30 56 -33 70 -7 27 -115 160 -224 273 -63 66 -213 187 -231 187 -5 0
-27 13 -48 29 -22 15 -64 34 -94 41 -30 6 -82 21 -116 31 -70 22 -297 33 -401
20z"/>
<path d="M3760 7984 c-25 -7 -72 -13 -105 -13 -33 -1 -73 -8 -89 -16 -15 -8
-34 -15 -41 -15 -7 0 -18 -7 -25 -15 -7 -8 -18 -15 -26 -15 -7 0 -57 -20 -111
-45 -142 -66 -163 -77 -163 -86 0 -4 -16 -13 -36 -19 -19 -7 -70 -41 -112 -77
-42 -35 -86 -68 -97 -73 -19 -8 -127 -102 -185 -160 -68 -69 -217 -236 -231
-259 -9 -14 -26 -35 -38 -45 -11 -11 -21 -24 -21 -31 0 -6 -12 -22 -26 -36
-14 -13 -30 -33 -35 -44 -10 -23 -22 -42 -61 -98 -16 -22 -28 -46 -28 -52 0
-7 -13 -40 -30 -73 -38 -78 -40 -132 -4 -179 14 -18 32 -56 40 -83 9 -32 31
-67 58 -97 24 -25 54 -66 67 -92 13 -25 57 -90 97 -144 39 -55 72 -104 72
-109 0 -6 14 -27 30 -48 17 -21 30 -42 30 -46 0 -5 14 -22 30 -38 17 -16 30
-35 30 -41 0 -6 12 -22 26 -36 14 -13 36 -44 49 -69 13 -25 35 -56 49 -69 14
-14 26 -30 26 -36 0 -7 10 -20 21 -31 20 -17 98 -128 125 -175 6 -11 23 -33
38 -48 14 -15 26 -31 26 -35 0 -5 34 -44 75 -88 41 -44 75 -84 75 -90 0 -6 14
-27 30 -48 17 -21 30 -47 30 -58 0 -14 14 -29 41 -45 36 -22 109 -120 109
-147 0 -5 9 -14 20 -20 17 -9 26 -7 50 12 16 13 40 31 54 41 26 18 26 19 26
152 l0 133 43 36 42 35 5 243 c5 244 10 274 46 318 9 11 14 82 17 241 4 222
10 268 44 334 12 23 18 85 24 260 10 247 17 314 41 358 12 22 16 65 17 195 1
193 17 369 36 416 15 34 24 231 11 243 -8 9 -117 43 -131 42 -5 -1 -30 -7 -55
-15z"/>
<path d="M5798 7076 c-53 -32 -78 -56 -78 -76 0 -9 -13 -29 -30 -45 -16 -16
-30 -35 -30 -43 0 -14 -44 -71 -112 -144 -20 -22 -40 -48 -43 -58 -3 -10 -17
-25 -30 -34 -14 -9 -25 -22 -25 -29 0 -11 -17 -34 -113 -151 -46 -57 -179
-211 -245 -285 -31 -35 -58 -72 -60 -82 -2 -11 -17 -29 -33 -41 -16 -12 -29
-27 -29 -34 0 -18 -273 -304 -291 -304 -5 0 -9 -8 -9 -18 0 -10 -14 -31 -31
-48 -17 -16 -37 -43 -44 -60 -7 -17 -27 -41 -44 -53 -17 -12 -31 -28 -31 -34
0 -7 -16 -28 -35 -47 -47 -46 -152 -167 -245 -281 -41 -51 -103 -120 -136
-153 -34 -34 -69 -77 -77 -96 -8 -19 -40 -61 -71 -93 -51 -52 -55 -59 -44 -82
l11 -25 131 6 c128 6 196 17 196 34 0 4 12 15 26 25 20 13 54 18 153 20 115 3
132 6 196 34 67 29 75 30 215 31 l144 0 34 33 33 32 142 5 c107 4 149 9 172
22 78 44 101 49 225 55 105 5 133 10 173 30 37 18 73 26 163 32 l115 9 76 58
c82 64 102 95 128 194 9 36 24 83 32 105 12 32 16 104 19 345 4 299 1 341 -31
505 -9 44 -22 121 -29 170 -9 61 -22 105 -39 137 -15 26 -27 57 -28 70 -2 81
-184 317 -284 368 -47 24 -42 24 -87 -4z"/>
<path d="M2044 6433 c-105 -85 -284 -274 -284 -300 0 -5 -9 -18 -21 -29 -12
-10 -28 -32 -36 -47 -8 -15 -24 -39 -36 -53 -12 -13 -33 -44 -47 -68 -14 -23
-45 -76 -70 -116 -65 -104 -129 -228 -142 -275 -6 -22 -15 -45 -20 -51 -13
-18 -48 -125 -48 -148 0 -12 -13 -48 -29 -81 -18 -37 -35 -99 -46 -160 -9 -55
-21 -122 -26 -150 -45 -240 -34 -462 27 -535 6 -8 14 -24 16 -35 2 -10 18 -30
37 -42 28 -19 37 -21 49 -10 10 8 54 12 131 13 139 1 287 19 316 38 33 22 162
37 286 34 91 -2 120 1 144 14 81 45 101 49 252 57 141 8 155 10 186 34 18 14
52 27 77 30 25 3 90 11 145 17 55 7 107 18 115 24 37 29 82 40 195 45 l120 6
27 55 c43 87 45 112 11 147 -16 16 -35 45 -43 64 -16 40 -97 149 -110 149 -5
0 -16 13 -24 28 -8 16 -28 44 -44 63 -30 34 -158 184 -213 249 -17 19 -66 85
-111 145 -44 61 -94 126 -110 145 -80 96 -136 169 -158 205 -13 22 -48 68 -77
102 -28 34 -59 75 -67 91 -8 16 -22 35 -31 42 -9 8 -26 32 -37 54 -11 23 -32
55 -47 72 -14 18 -46 62 -71 99 -55 82 -94 125 -113 125 -8 0 -41 -21 -73 -47z"/>
<path d="M5880 4952 l-75 -37 -165 -1 -165 0 -46 -32 -47 -32 -135 0 c-133 0
-136 -1 -168 -27 -35 -29 -101 -41 -240 -42 -66 -1 -108 -10 -164 -37 -57 -27
-150 -44 -242 -44 -88 0 -96 -2 -135 -30 l-41 -30 -147 0 c-164 0 -159 2 -209
-83 -40 -65 -29 -86 127 -245 75 -77 171 -176 212 -222 73 -79 138 -146 190
-193 14 -13 43 -47 65 -75 22 -29 44 -52 50 -52 6 0 36 -30 68 -67 31 -38 105
-116 164 -175 59 -59 153 -155 208 -214 55 -59 135 -143 178 -188 43 -45 81
-86 85 -92 15 -22 58 -44 88 -44 46 0 119 58 240 192 53 57 174 213 174 222 0
3 11 22 25 42 14 21 28 49 32 63 3 14 19 45 34 69 16 24 29 49 29 57 0 8 4 16
9 19 5 3 12 18 16 33 3 16 20 56 36 91 16 34 29 69 29 77 0 8 12 39 26 68 15
28 30 79 34 113 4 33 18 83 32 111 14 27 29 79 33 114 10 86 30 181 44 207 6
11 11 36 11 55 0 18 7 58 16 88 17 57 15 132 -8 239 -15 69 -40 105 -90 125
-58 23 -96 18 -178 -23z m-1154 -601 c33 -11 84 -29 114 -41 30 -12 69 -26 85
-31 49 -14 105 -66 105 -97 0 -38 -12 -51 -54 -66 -30 -10 -48 -11 -90 -1 -60
14 -96 31 -96 45 0 6 -25 21 -54 35 -30 14 -61 34 -69 45 -14 21 -70 61 -99
73 -18 6 -24 37 -11 50 13 14 112 6 169 -12z"/>
<path d="M3192 4480 c-18 -4 -43 -17 -55 -28 -54 -51 -126 -62 -230 -38 -71
18 -116 7 -151 -34 -13 -17 -35 -34 -48 -38 -13 -5 -101 -4 -196 1 -170 9
-174 9 -203 -12 -49 -36 -79 -44 -209 -50 -108 -6 -132 -10 -177 -33 -46 -23
-76 -29 -222 -42 -93 -8 -179 -20 -191 -26 -26 -14 -109 -35 -172 -44 -26 -4
-51 -13 -55 -20 -5 -7 -21 -21 -37 -31 -50 -33 -109 -123 -118 -183 -5 -30
-20 -78 -33 -107 -19 -40 -28 -83 -38 -186 -25 -277 -9 -781 28 -864 29 -67
45 -117 45 -146 0 -17 11 -45 24 -62 13 -18 31 -50 40 -71 26 -64 127 -206
165 -234 20 -14 50 -38 66 -53 17 -14 47 -29 68 -32 33 -5 42 -2 63 20 13 14
24 29 24 33 0 4 11 13 25 20 14 7 34 32 45 55 11 23 45 68 75 100 30 31 55 61
55 65 0 5 16 25 35 46 19 20 35 41 35 47 0 6 15 25 33 42 66 65 107 112 107
123 0 6 16 23 35 38 19 14 35 34 35 44 0 9 8 24 18 33 10 9 43 48 73 87 30 39
78 96 106 127 29 32 60 72 68 90 9 18 28 39 43 47 24 12 72 73 108 138 7 11
28 31 48 44 20 14 36 29 36 34 0 5 16 24 35 41 19 18 35 38 35 45 0 7 12 22
28 32 18 13 32 36 39 65 9 34 20 49 40 59 17 8 32 26 38 45 6 17 23 41 38 53
15 12 27 28 27 35 0 8 14 24 30 37 17 12 30 28 30 35 0 16 40 93 49 93 4 0 15
15 25 33 11 17 45 58 77 90 33 32 59 63 59 70 0 7 13 20 28 31 15 10 36 38 46
61 12 30 38 61 81 97 54 45 66 60 74 97 14 65 -6 91 -68 90 -25 -1 -61 -5 -79
-9z"/>
<path d="M3719 4337 c-45 -40 -57 -67 -62 -140 -2 -40 -9 -61 -22 -71 -16 -11
-18 -35 -21 -235 -4 -251 -14 -333 -49 -407 -23 -48 -24 -65 -30 -300 -4 -158
-12 -271 -21 -309 -7 -33 -14 -78 -14 -101 0 -22 -6 -63 -14 -90 -8 -27 -17
-119 -21 -209 -6 -169 -20 -274 -40 -315 -18 -35 -23 -92 -36 -370 -7 -150
-16 -257 -24 -275 -7 -16 -17 -43 -24 -58 -17 -44 -14 -128 8 -156 16 -21 26
-24 97 -24 107 -1 275 30 349 65 33 15 68 28 77 28 16 0 193 77 228 100 8 5
35 19 60 32 25 12 61 35 81 50 20 15 41 28 46 28 4 0 20 11 35 25 15 14 36 29
47 33 34 12 229 202 353 342 100 113 308 400 308 425 0 4 13 26 29 50 16 23
38 67 49 96 11 30 30 72 41 94 13 25 21 58 21 90 0 47 -6 61 -73 162 -40 60
-90 126 -110 145 -20 19 -39 47 -42 61 -4 15 -22 35 -40 45 -18 11 -48 45 -66
76 -19 30 -42 58 -52 62 -9 3 -41 35 -71 72 -29 37 -65 78 -80 91 -14 14 -26
28 -26 33 0 5 -9 19 -21 31 -12 12 -33 37 -47 55 -14 19 -39 48 -56 66 -17 18
-40 44 -52 57 -11 13 -44 43 -72 67 -29 24 -52 48 -52 54 0 7 -28 39 -62 73
-35 34 -83 89 -108 122 -25 33 -54 64 -64 69 -11 5 -27 21 -35 37 -14 23 -86
90 -125 115 -6 4 -38 37 -71 75 -32 37 -66 67 -74 67 -9 0 -32 -15 -52 -33z"/>
<path d="M3428 4283 c-12 -3 -18 -17 -20 -46 -2 -35 -7 -43 -25 -45 -25 -4
-63 -46 -63 -71 0 -9 -9 -22 -20 -29 -11 -6 -32 -31 -46 -55 -15 -23 -39 -53
-55 -67 -15 -14 -37 -42 -47 -63 -19 -37 -52 -68 -84 -80 -9 -3 -19 -18 -22
-34 -4 -16 -24 -46 -46 -67 -22 -21 -40 -44 -40 -51 0 -7 -12 -20 -26 -30 -14
-9 -30 -29 -36 -45 -5 -16 -18 -32 -29 -35 -11 -4 -30 -28 -43 -53 -13 -26
-36 -57 -50 -69 -14 -13 -26 -29 -26 -36 0 -7 -13 -23 -30 -35 -16 -13 -30
-29 -30 -37 0 -8 -13 -24 -29 -36 -17 -12 -35 -36 -42 -53 -12 -30 -48 -77
-109 -143 -17 -18 -30 -39 -30 -46 0 -8 -29 -43 -64 -78 -35 -36 -71 -82 -80
-102 -8 -20 -19 -37 -24 -37 -5 0 -19 -20 -31 -45 -12 -25 -28 -45 -35 -45
-13 0 -66 -51 -66 -64 0 -12 -83 -117 -130 -164 -23 -23 -56 -63 -71 -87 -16
-25 -33 -45 -39 -45 -6 0 -16 -12 -22 -27 -7 -16 -58 -73 -115 -129 -57 -55
-103 -105 -103 -112 0 -6 -15 -28 -32 -48 -31 -35 -33 -41 -30 -108 2 -44 10
-86 22 -111 11 -22 26 -67 34 -99 9 -33 25 -69 35 -80 11 -12 42 -56 70 -98
27 -42 58 -86 68 -96 10 -11 45 -52 78 -90 33 -39 67 -73 75 -76 9 -3 31 -20
50 -38 19 -17 62 -45 95 -61 33 -16 67 -35 75 -41 22 -18 117 -46 154 -46 18
0 58 -5 90 -12 60 -12 167 -1 286 28 30 8 67 14 82 14 34 0 209 82 258 121 84
68 90 80 90 198 0 44 5 74 15 87 8 11 14 41 15 71 0 29 6 70 14 90 10 26 16
94 19 218 4 172 10 215 41 275 13 25 18 89 36 475 5 105 14 206 20 225 35 107
50 228 50 404 l0 179 30 53 30 53 1 248 1 248 28 68 c16 38 26 75 23 84 -10
25 -54 37 -95 26z"/>
</g>
</svg>
